# xmcd CD database file
#
# Track frame offsets:
#	183
#	8708
#	16665
#	19448
#	20850
#	22210
#	29008
#	35233
#	47558
#	53538
#	57933
#	62390
#	70940
#	81608
#	94073
#	112355
#	126875
#	137435
#
# Disc length: 2005 seconds
#
# Revision: 0
# Processed by: cddbd v1.4PL0 Copyright (c) Steve Scherf et al.
# Submitted via: CDex 1.50
#
DISCID=fe07d312
DTITLE=Tony Bennett - The Special Magic of Tony Bennett
DYEAR=1900
DGENRE=Jazz
TTITLE0=What Is This Thing Called Love
TTITLE1=Love For Sale
TTITLE2=I'm In Love Again
TTITLE3=You'd Be So Nice To Come Home To
TTITLE4=Easy To Love
TTITLE5=It's Alright By Me
TTITLE6=Night And Day
TTITLE7=Dream Dancing
TTITLE8=I've Got You Under My Skin
TTITLE9=Get Out Of Town
TTITLE10=What Is This Thing Called Love (Reprise)
TTITLE11=Experiment
TTITLE12=One
TTITLE13=This Funny World
TTITLE14=Lost In The Stars
TTITLE15=As Time Goes By
TTITLE16=I Used To Be Color Blind
TTITLE17=Mr. Magic
EXTD=
EXTT0=
EXTT1=
EXTT2=
EXTT3=
EXTT4=
EXTT5=
EXTT6=
EXTT7=
EXTT8=
EXTT9=
EXTT10=
EXTT11=
EXTT12=
EXTT13=
EXTT14=
EXTT15=
EXTT16=
EXTT17=
PLAYORDER=
